<?xml version="1.0" standalone="no"?>
<!DOCTYPE svg PUBLIC "-//W3C//DTD SVG 20010904//EN"
 "http://www.w3.org/TR/2001/REC-SVG-20010904/DTD/svg10.dtd">
<svg version="1.0" xmlns="http://www.w3.org/2000/svg"
 width="1606.000000pt" height="2051.000000pt" viewBox="0 0 1606.000000 2051.000000"
 preserveAspectRatio="xMidYMid meet">

<g transform="translate(0.000000,2051.000000) scale(0.100000,-0.100000)"
fill="#000000" stroke="none">
<path d="M365 18889 c13 -361 35 -516 75 -526 27 -7 31 -38 28 -228 -3 -174 3
-218 27 -209 28 11 39 -37 35 -156 -7 -227 -1 -277 32 -282 32 -4 37 -35 31
-189 -7 -157 -2 -193 27 -184 36 11 42 -23 34 -204 -7 -165 -6 -169 14 -180
26 -14 38 -54 61 -211 41 -268 51 -594 21 -649 -16 -31 -8 -35 34 -15 64 31
66 22 56 -284 -5 -121 -3 -135 13 -147 24 -17 43 -81 67 -225 67 -394 110
-936 78 -1005 -15 -34 -7 -39 36 -19 56 27 62 15 56 -129 -9 -255 -8 -279 21
-307 20 -20 30 -48 47 -130 43 -210 77 -522 87 -800 7 -174 21 -315 36 -342 5
-10 16 -18 24 -18 26 0 37 -40 46 -173 11 -156 22 -231 54 -352 13 -49 26
-109 30 -132 6 -38 4 -42 -22 -55 -25 -12 -28 -19 -31 -70 -4 -72 10 -102 44
-94 47 12 52 -53 28 -366 -4 -47 -4 -95 0 -105 7 -17 9 -17 26 5 40 48 49 28
60 -138 9 -142 23 -185 74 -233 35 -34 53 -75 42 -102 -7 -20 -56 -19 -84 1
-36 25 -35 13 5 -46 39 -59 55 -129 33 -155 -17 -20 -9 -19 45 7 64 31 73 20
57 -72 -19 -110 -18 -111 26 -108 l37 3 0 -125 0 -124 30 -1 30 0 0 -70 c0
-38 -4 -96 -9 -128 -8 -53 -7 -57 12 -57 29 0 78 -61 150 -187 65 -115 237
-474 254 -533 14 -46 4 -140 -22 -215 -58 -166 -53 -182 89 -314 124 -115 166
-170 158 -203 -11 -42 -113 -152 -259 -280 -255 -223 -281 -276 -298 -603 -11
-212 -29 -283 -123 -465 -112 -217 -111 -214 -112 -440 0 -107 -4 -205 -9
-217 -4 -13 -16 -23 -27 -23 -10 0 -19 -3 -19 -6 0 -4 16 -43 36 -87 32 -71
36 -87 31 -135 -6 -52 -4 -57 25 -84 26 -24 58 -37 58 -23 0 2 -10 25 -22 50
-27 55 -18 68 23 29 61 -57 91 -151 104 -318 9 -120 23 -161 55 -161 22 0 25
-5 28 -44 2 -24 -8 -91 -22 -150 -14 -58 -26 -117 -28 -131 -3 -22 -7 -25 -40
-22 -28 2 -39 -2 -48 -17 -14 -27 -26 -171 -14 -171 6 0 27 23 49 52 21 29 40
48 42 42 2 -6 -12 -66 -32 -134 -72 -250 -118 -587 -97 -704 14 -74 15 -123 4
-130 -5 -3 -19 1 -33 8 -39 20 -59 26 -59 17 0 -4 30 -52 66 -107 83 -126 252
-467 342 -694 130 -326 188 -511 267 -859 49 -215 123 -265 437 -300 53 -6
341 -24 640 -41 298 -17 716 -41 928 -55 212 -13 507 -31 655 -40 473 -27
1043 -65 1275 -85 291 -25 600 -45 1090 -70 460 -24 794 -45 1565 -100 615
-43 1287 -86 1980 -125 248 -14 468 -30 489 -35 22 -5 51 -17 65 -28 23 -17
27 -28 32 -103 5 -62 17 -114 48 -199 60 -165 57 -216 -20 -310 -38 -45 -36
-52 5 -35 43 18 64 11 72 -24 3 -14 8 -34 11 -45 3 -10 26 -27 51 -39 39 -17
67 -21 162 -21 179 0 218 29 219 162 1 29 14 157 30 285 42 338 43 342 35 382
-6 32 -9 36 -30 31 -36 -10 -45 25 -28 107 16 79 12 96 -24 94 -35 -3 -52 32
-52 104 0 41 5 63 19 80 19 23 20 23 55 6 44 -21 45 -12 5 43 -44 60 -61 105
-61 164 -1 125 84 207 216 210 43 1 52 5 63 26 7 14 13 36 13 50 0 63 62 100
163 100 85 0 127 -15 127 -45 0 -32 19 -44 90 -56 89 -14 130 -33 171 -81 l37
-42 40 13 c52 17 84 11 158 -33 188 -111 675 -182 756 -110 11 11 27 33 34 50
12 28 10 37 -14 95 -25 61 -27 72 -27 234 0 205 12 257 80 336 24 28 42 55 40
59 -2 4 -32 10 -65 13 -131 12 -123 64 35 227 153 159 161 177 98 229 -32 25
-35 32 -23 41 8 5 28 10 43 10 40 0 43 22 13 93 -37 89 -45 138 -46 260 0 159
39 325 113 472 75 151 226 345 269 345 29 0 31 -22 9 -88 -28 -82 -26 -91 9
-57 57 55 61 138 8 178 -21 16 -29 17 -48 7 -39 -21 -45 -1 -44 153 0 198 38
337 98 365 35 16 34 50 -4 97 -37 46 -38 84 -5 123 33 40 89 61 191 71 46 5
91 15 101 22 34 29 56 100 56 184 0 89 -12 121 -49 135 -28 11 -30 29 -9 70
23 44 51 39 102 -17 42 -48 42 -48 43 -20 0 32 -22 79 -56 120 -15 18 -24 41
-24 63 0 47 65 111 156 155 61 29 82 33 180 39 125 6 158 20 169 70 17 77 -44
148 -186 213 -107 50 -161 92 -190 148 -24 47 -24 92 0 144 19 42 101 125 124
125 7 0 17 -19 23 -42 l9 -43 70 -1 c61 -1 86 -8 190 -51 129 -55 196 -70 238
-54 43 17 33 44 -39 107 -133 117 -127 184 21 249 78 35 105 60 105 100 0 79
-109 217 -212 267 -34 17 -86 31 -136 37 -138 17 -225 78 -278 195 -26 56 -27
64 -21 172 6 136 3 154 -29 154 -33 0 -46 36 -47 125 0 79 23 163 53 190 39
35 25 71 -62 162 -68 71 -117 168 -141 280 -27 119 -93 233 -211 360 -93 100
-181 164 -323 233 -91 45 -131 71 -157 102 -76 89 -103 222 -117 578 -14 378
-25 443 -78 453 -20 4 -41 21 -62 49 -46 62 -135 252 -156 330 -16 63 -16 72
0 170 30 180 24 197 -73 209 -81 9 -114 33 -118 85 -4 48 -16 62 -37 44 -9 -8
-38 -13 -63 -13 -163 3 -496 247 -707 518 -128 164 -284 427 -272 459 9 24
-15 36 -70 36 -89 0 -114 39 -134 218 -19 167 -55 267 -122 340 -58 62 -70 87
-63 127 6 30 2 37 -47 81 -29 27 -98 73 -153 103 -208 114 -291 181 -280 227
6 22 4 22 -49 17 l-54 -6 -58 59 c-103 105 -173 280 -144 360 7 19 11 38 8 40
-2 3 -21 -3 -40 -12 -42 -20 -62 -10 -72 37 -22 98 -282 337 -497 455 -115 63
-167 132 -143 188 7 16 5 17 -16 10 -13 -4 -37 -7 -52 -6 -72 4 -256 142 -298
223 -10 21 -18 53 -17 71 3 27 0 32 -16 30 -44 -8 -63 7 -84 65 -12 32 -53
114 -93 182 -94 164 -132 276 -99 296 6 3 10 12 10 19 0 11 -19 12 -88 8 -84
-4 -89 -3 -120 23 -31 26 -32 30 -32 100 0 41 -5 98 -11 127 -16 78 -83 213
-144 294 -73 95 -89 135 -82 204 4 30 9 66 13 79 7 23 6 24 -31 17 -35 -7 -40
-4 -80 37 -63 66 -89 141 -88 247 1 75 -1 88 -20 108 -52 56 -160 88 -347 103
-205 16 -230 26 -230 99 l0 38 -43 -1 c-56 -2 -126 42 -229 146 -120 123 -186
175 -242 193 -28 9 -71 28 -95 42 -120 69 -311 233 -393 335 -33 42 -38 56
-38 99 0 74 25 161 80 273 81 168 153 258 405 508 210 210 228 230 208 238
-39 14 -302 29 -718 40 -225 6 -1871 13 -3763 16 l-3363 5 6 -173z"/>
<path d="M15751 7394 c-23 -29 -27 -77 -11 -119 11 -30 31 -39 65 -31 52 13
55 139 5 166 -28 15 -37 13 -59 -16z"/>
<path d="M14901 5946 c-23 -37 -26 -58 -11 -87 24 -43 70 -12 70 48 -1 77 -26
94 -59 39z"/>
<path d="M14724 5414 c-40 -21 -57 -38 -126 -121 -73 -90 -108 -149 -108 -186
0 -34 48 -87 79 -87 20 0 24 8 36 70 11 54 33 90 95 155 86 90 112 153 72 174
-13 7 -27 5 -48 -5z"/>
<path d="M14259 4503 c-8 -9 -19 -47 -26 -85 -12 -74 -30 -102 -69 -112 -14
-4 -29 -18 -34 -32 -31 -79 20 -244 74 -244 24 0 75 59 108 123 52 104 79 138
125 158 37 16 43 22 43 49 0 59 -45 116 -112 145 -48 20 -92 19 -109 -2z"/>
<path d="M14020 3013 c-73 -82 -92 -186 -51 -277 25 -58 34 -55 79 36 49 97
61 201 30 261 -13 25 -22 22 -58 -20z"/>
</g>
</svg>
